<?xml version="1.0" standalone="no"?>
<svg xmlns:xlink="http://www.w3.org/1999/xlink" xmlns="http://www.w3.org/2000/svg" viewBox="0 0 1000 500" preserveAspectRatio="xMaxYMax slice">
	<g transform="scale(1.0339123242349049)" opacity="0.5">
		<rect x="0" y="0" width="967.2" height="483.6" fill="#B6ACD1" />
		<rect x="0" y="0" width="80.60000000000001" height="80.60000000000001" fill="#B6ACD1" />
		<path d="M 0 40.3 A 40.3 40.3 0 0 1  40.3 0 L 0 40.3 A 40.3 40.3 0 0 0 40.3 0" fill="#745aa0" />
		<path d="M 40.3 40.3 A 40.3 40.3 0 0 1  80.6 80.6 L 40.3 40.3 A 40.3 40.3 0 0 0 80.6 80.6" fill="#8069a9" />
		<rect x="80.60000000000001" y="0" width="80.60000000000001" height="80.60000000000001" fill="#B6ACD1" />
		<rect x="483.6" y="0" width="80.60000000000001" height="80.60000000000001" fill="#B6ACD1" />
		<path d="M 483.6 0 A 40.3 40.3 0 0 1  523.9 40.3 L 483.6 0 A 40.3 40.3 0 0 0 523.9 40.3" fill="#7d65a7" />
		<rect x="644.8000000000001" y="0" width="80.60000000000001" height="80.60000000000001" fill="#B6ACD1" />
		<path d="M 644.8 40.3 A 40.3 40.3 0 0 1  685.0999999999999 0 L 644.8 40.3 A 40.3 40.3 0 0 0 685.0999999999999 0" fill="#654695" />
		<path d="M 685.1 80.6 A 40.3 40.3 0 0 1  725.4 40.3 L 685.1 80.6 A 40.3 40.3 0 0 0 725.4 40.3" fill="#cba4b1" />
		<rect x="806.0000000000001" y="0" width="80.60000000000001" height="80.60000000000001" fill="#B6ACD1" />
		<path d="M 806 0 A 40.3 40.3 0 0 1  846.3 40.3 L 806 0 A 40.3 40.3 0 0 0 846.3 40.3" fill="#826baa" />
		<path d="M 846.3 40.3 A 40.3 40.3 0 0 1  886.5999999999999 0 L 846.3 40.3 A 40.3 40.3 0 0 0 886.5999999999999 0" fill="#502c85" />
		<path d="M 806 80.6 A 40.3 40.3 0 0 1  846.3 40.3 L 806 80.6 A 40.3 40.3 0 0 0 846.3 40.3" fill="#f49474" />
		<rect x="403.00000000000006" y="80.60000000000001" width="80.60000000000001" height="80.60000000000001" fill="#B6ACD1" />
		<path d="M 403 120.89999999999999 A 40.3 40.3 0 0 1  443.3 80.6 L 403 120.89999999999999 A 40.3 40.3 0 0 0 443.3 80.6" fill="#cda3af" />
		<path d="M 443.3 120.89999999999999 A 40.3 40.3 0 0 1  483.6 80.6 L 443.3 120.89999999999999 A 40.3 40.3 0 0 0 483.6 80.6" fill="#5c3c8e" />
		<path d="M 443.3 161.2 A 40.3 40.3 0 0 1  483.6 120.9 L 443.3 161.2 A 40.3 40.3 0 0 0 483.6 120.9" fill="#765ca1" />
		<rect x="483.6" y="80.60000000000001" width="80.60000000000001" height="80.60000000000001" fill="#B6ACD1" />
		<path d="M 483.6 120.89999999999999 A 40.3 40.3 0 0 1  523.9 80.6 L 483.6 120.89999999999999 A 40.3 40.3 0 0 0 523.9 80.6" fill="#da9e9a" />
		<path d="M 644.8 80.6 A 80.6 80.6 0 0 1  725.4 161.2 L 644.8 80.6 A 80.6 80.6 0 0 0 725.4 161.2" fill="#856fad" />
		<rect x="886.6000000000001" y="80.60000000000001" width="80.60000000000001" height="80.60000000000001" fill="#B6ACD1" />
		<path d="M 80.6 241.79999999999998 A 80.6 80.6 0 0 1  161.2 161.2 L 80.6 241.79999999999998 A 80.6 80.6 0 0 0 161.2 161.2" fill="#cda3ae" />
		<rect x="322.40000000000003" y="161.20000000000002" width="80.60000000000001" height="80.60000000000001" fill="#B6ACD1" />
		<path d="M 362.7 161.2 A 40.3 40.3 0 0 1  403 201.5 L 362.7 161.2 A 40.3 40.3 0 0 0 403 201.5" fill="#c0a8c2" />
		<path d="M 322.4 201.5 A 40.3 40.3 0 0 1  362.7 241.8 L 322.4 201.5 A 40.3 40.3 0 0 0 362.7 241.8" fill="#56358a" />
		<rect x="0" y="241.8" width="80.60000000000001" height="80.60000000000001" fill="#B6ACD1" />
		<path d="M 0 241.8 A 40.3 40.3 0 0 1  40.3 282.1 L 0 241.8 A 40.3 40.3 0 0 0 40.3 282.1" fill="#f09679" />
		<rect x="80.60000000000001" y="241.8" width="80.60000000000001" height="80.60000000000001" fill="#B6ACD1" />
		<path d="M 241.8 241.8 A 80.6 80.6 0 0 1  322.4 322.4 L 241.8 241.8 A 80.6 80.6 0 0 0 322.4 322.4" fill="#9b8bbd" />
		<path d="M 322.4 241.8 A 80.6 80.6 0 0 1  403 322.4 L 322.4 241.8 A 80.6 80.6 0 0 0 403 322.4" fill="#f09679" />
		<rect x="403.00000000000006" y="241.8" width="80.60000000000001" height="80.60000000000001" fill="#B6ACD1" />
		<path d="M 403 322.40000000000003 A 40.3 40.3 0 0 1  443.3 282.1 L 403 322.40000000000003 A 40.3 40.3 0 0 0 443.3 282.1" fill="#df9c93" />
		<rect x="322.40000000000003" y="322.40000000000003" width="80.60000000000001" height="80.60000000000001" fill="#B6ACD1" />
		<path d="M 322.4 362.7 A 40.3 40.3 0 0 1  362.7 322.4 L 322.4 362.7 A 40.3 40.3 0 0 0 362.7 322.4" fill="#f09679" />
		<rect x="403.00000000000006" y="322.40000000000003" width="80.60000000000001" height="80.60000000000001" fill="#B6ACD1" />
		<path d="M 403 322.4 A 40.3 40.3 0 0 1  443.3 362.7 L 403 322.4 A 40.3 40.3 0 0 0 443.3 362.7" fill="#927fb6" />
		<path d="M 443.3 403 A 40.3 40.3 0 0 1  483.6 362.7 L 443.3 403 A 40.3 40.3 0 0 0 483.6 362.7" fill="#684a97" />
		<rect x="564.2" y="322.40000000000003" width="80.60000000000001" height="80.60000000000001" fill="#B6ACD1" />
		<path d="M 604.5 362.7 A 40.3 40.3 0 0 1  644.8 322.4 L 604.5 362.7 A 40.3 40.3 0 0 0 644.8 322.4" fill="#a496c4" />
		<rect x="806.0000000000001" y="322.40000000000003" width="80.60000000000001" height="80.60000000000001" fill="#B6ACD1" />
		<path d="M 806 322.4 A 40.3 40.3 0 0 1  846.3 362.7 L 806 322.4 A 40.3 40.3 0 0 0 846.3 362.7" fill="#694c98" />
		<path d="M 846.3 362.7 A 40.3 40.3 0 0 1  886.5999999999999 403 L 846.3 362.7 A 40.3 40.3 0 0 0 886.5999999999999 403" fill="#f59472" />
		<rect x="886.6000000000001" y="322.40000000000003" width="80.60000000000001" height="80.60000000000001" fill="#B6ACD1" />
		<path d="M 926.9 362.7 A 40.3 40.3 0 0 1  967.1999999999999 403 L 926.9 362.7 A 40.3 40.3 0 0 0 967.1999999999999 403" fill="#d0a2a9" />
		<rect x="0" y="403.00000000000006" width="80.60000000000001" height="80.60000000000001" fill="#B6ACD1" />
		<path d="M 40.3 443.3 A 40.3 40.3 0 0 1  80.6 483.6 L 40.3 443.3 A 40.3 40.3 0 0 0 80.6 483.6" fill="#674a97" />
		<path d="M 403 403 A 80.6 80.6 0 0 1  483.6 483.6 L 403 403 A 80.6 80.6 0 0 0 483.6 483.6" fill="#9886ba" />
		<path d="M 483.6 403 A 80.6 80.6 0 0 1  564.2 483.6 L 483.6 403 A 80.6 80.6 0 0 0 564.2 483.6" fill="#cba4b2" />
		<path d="M 564.2 483.6 A 80.6 80.6 0 0 1  644.8000000000001 403 L 564.2 483.6 A 80.6 80.6 0 0 0 644.8000000000001 403" fill="#785fa3" />
		<rect x="644.8000000000001" y="403.00000000000006" width="80.60000000000001" height="80.60000000000001" fill="#B6ACD1" />
		<path d="M 644.8 403 A 40.3 40.3 0 0 1  685.0999999999999 443.3 L 644.8 403 A 40.3 40.3 0 0 0 685.0999999999999 443.3" fill="#dc9d97" />
		<path d="M 886.6 483.6 A 80.6 80.6 0 0 1  967.2 403 L 886.6 483.6 A 80.6 80.6 0 0 0 967.2 403" fill="#ada1ca" />
	</g>
</svg>
